<svg xmlns="http://www.w3.org/2000/svg" style="display: none;"><symbol id="logo-Facebook" viewBox="0 0 19 19"><g class="nc-icon-wrapper" fill="currentColor"><path d="M16.662 2.25H2.382c-.34 0-.632.29-.632.63v14.192c0 .388.291.678.631.678h7.626v-5.812H8.065V9.516h1.942V7.579c0-1.986 1.263-3.004 3.06-3.004.875 0 1.603.097 1.797.097v2.083h-1.263c-.97 0-1.214.484-1.214 1.163v1.598h2.43l-.487 2.422h-1.943l.049 5.812h4.176c.341 0 .633-.29.633-.63V2.88c.048-.34-.243-.63-.583-.63" fill="currentColor" fill-rule="evenodd"/></g></symbol><symbol id="logo-Instagram" viewBox="0 0 19 19"><g class="nc-icon-wrapper" fill="currentColor"><path d="M9.475 2.342c2.125 0 2.392.009 3.226.047 1.272.058 2.388.37 3.285 1.266.896.897 1.208 2.014 1.266 3.286.038.834.047 1.1.047 3.225s-.01 2.39-.047 3.226c-.058 1.272-.37 2.388-1.266 3.285-.898.896-2.015 1.208-3.286 1.266-.833.038-1.1.046-3.225.046s-2.392-.008-3.227-.046c-1.27-.058-2.388-.37-3.285-1.266-.896-.897-1.208-2.014-1.265-3.285-.038-.835-.047-1.101-.047-3.226s.01-2.391.047-3.225c.057-1.273.37-2.39 1.265-3.286.897-.896 2.014-1.208 3.285-1.266.835-.038 1.101-.047 3.226-.047zm0 1.41c-2.09 0-2.336.008-3.161.046-.891.04-1.717.219-2.353.855-.635.635-.814 1.46-.854 2.352-.038.824-.046 1.072-.046 3.16s.008 2.337.046 3.162c.04.89.219 1.717.854 2.353.636.636 1.462.814 2.353.854.825.038 1.072.046 3.16.046s2.338-.008 3.162-.046c.89-.04 1.717-.218 2.353-.854.634-.636.813-1.462.853-2.353.038-.825.046-1.072.046-3.161s-.008-2.337-.046-3.161c-.04-.891-.219-1.717-.854-2.352-.635-.636-1.461-.815-2.352-.855-.824-.038-1.072-.046-3.161-.046zm0 9.021a2.607 2.607 0 1 0 0-5.213 2.607 2.607 0 0 0 0 5.213zm0-6.625a4.018 4.018 0 1 1 0 8.036 4.018 4.018 0 0 1 0-8.036zm4.176-1.097a.938.938 0 1 1-.939.938c0-.518.42-.938.94-.938z" fill="currentColor" fill-rule="evenodd"/></g></symbol><symbol id="logo-Medium-alt" viewBox="0 0 19 19"><g class="nc-icon-wrapper" fill="currentColor"><path d="M17.25 4.518l-1.231 1.179a.413.413 0 0 0-.154.345v8.666a.336.336 0 0 0 .154.345l1.231 1.179v.268h-6.125v-.268l1.292-1.217c.115-.115.115-.153.115-.345V7.688L9 16.375h-.462L4.513 7.688l.007 5.91a.801.801 0 0 0 .231.69l1.624 1.944v.268H1.75v-.268l1.616-1.945a.664.664 0 0 0 .192-.689l-.007-6.83a.588.588 0 0 0-.193-.497L1.88 4.556V4.25h4.55l3.455 7.557 3.078-7.557h4.264z" fill="currentColor" fill-rule="evenodd"/></g></symbol><symbol id="logo-Medium" viewBox="0 0 19 19"><g class="nc-icon-wrapper" fill="currentColor"><path d="M14.627 5.923l-.832.798a.242.242 0 0 0-.092.232v5.857c-.015.089.02.18.092.233l.812.797v.175h-4.083v-.175l.84-.817c.083-.082.083-.106.083-.233V8.056l-2.338 5.939h-.316L6.07 8.055v3.98a.552.552 0 0 0 .152.457l1.093 1.327v.174h-3.1v-.174l1.094-1.327c.117-.121.17-.29.14-.457V7.433a.403.403 0 0 0-.13-.338l-.975-1.172v-.175h3.02l2.333 5.117 2.052-5.117h2.878zm2.139-3.673H2.233a.485.485 0 0 0-.483.484v14.533c0 .267.217.483.483.483h14.533a.484.484 0 0 0 .484-.483V2.734a.485.485 0 0 0-.484-.484z" fill="currentColor" fill-rule="evenodd"/></g></symbol><symbol id="logo-Podcast" viewBox="0 0 19 19"><g class="nc-icon-wrapper" fill="currentColor"><path d="M9.5 12c-2.2 0-4-1.755-4-3.9V6.15c0-2.145 1.8-3.9 4-3.9s4 1.755 4 3.9V8.1c0 2.145-1.8 3.9-4 3.9zm7.735-2.664c-.49 3.504-3.308 6.23-6.735 6.62v1.794h-2l.02-1.794c-3.426-.487-6.265-3.116-6.755-6.62-.098-.487.294-.974.783-1.071.588-.097 1.077.292 1.175.876.392 2.823 2.84 4.965 5.777 4.965 2.937 0 5.385-2.142 5.875-5.062 0-.487.587-.876 1.077-.779s.88.584.783 1.07z" fill="currentColor" fill-rule="evenodd"/></g></symbol><symbol id="logo-Twitter" viewBox="0 0 19 19"><g class="nc-icon-wrapper" fill="currentColor"><path d="M18.25 4.448c-.654.274-1.309.493-2.072.549.763-.44 1.308-1.152 1.581-1.973-.709.439-1.471.712-2.29.877-.654-.713-1.58-1.151-2.562-1.151A3.605 3.605 0 0 0 9.31 6.367c0 .274.055.547.11.822C6.42 7.025 3.803 5.6 2.004 3.407a3.459 3.459 0 0 0-.491 1.81c0 1.26.655 2.356 1.58 3.013a3.317 3.317 0 0 1-1.635-.439v.056c0 1.753 1.254 3.179 2.89 3.507-.327.055-.6.11-.927.11-.217 0-.435 0-.653-.055.436 1.426 1.798 2.466 3.325 2.522-1.2.985-2.78 1.534-4.47 1.534-.273 0-.6 0-.873-.054C2.385 16.397 4.294 17 6.311 17c6.596 0 10.195-5.481 10.195-10.25v-.438c.654-.548 1.253-1.151 1.744-1.864" fill="currentColor" fill-rule="evenodd"/></g></symbol><symbol id="logo-YouTube" viewBox="0 0 19 19"><g class="nc-icon-wrapper" fill="currentColor"><path d="M7.676 12.479V7.6l4.74 2.458zm10.39-5.71s-.182-1.191-.691-1.734c-.657-.686-1.422-.686-1.75-.723-2.444-.18-6.126-.18-6.126-.18s-3.681 0-6.124.18c-.329.037-1.094.037-1.75.723-.51.543-.693 1.735-.693 1.735S.75 8.179.75 9.588v1.3c0 1.41.182 2.82.182 2.82s.183 1.192.693 1.734c.656.687 1.53.687 1.932.76 1.386.145 5.942.18 5.942.18s3.682 0 6.126-.18c.328-.037 1.093-.037 1.75-.724.51-.541.692-1.734.692-1.734s.183-1.41.183-2.819V9.624c0-1.445-.183-2.854-.183-2.854z" fill="currentColor" fill-rule="evenodd"/></g></symbol></svg>
