<svg xmlns="http://www.w3.org/2000/svg" style="display: none;"><symbol id="ui-arrow-left" viewBox="0 0 19 19"><g class="nc-icon-wrapper" fill="currentColor"><path d="M5.207 11l4.397 4.396a.5.5 0 0 1-.708.708l-5.25-5.25a.5.5 0 0 1 0-.708l5.25-5.25a.5.5 0 1 1 .708.708L5.207 10H15a.5.5 0 1 1 0 1z"/></g></symbol><symbol id="ui-arrow-right" viewBox="0 0 19 19"><g class="nc-icon-wrapper" fill="currentColor"><path d="M13.793 11H4.25a.5.5 0 1 1 0-1h9.543L9.396 5.604a.5.5 0 1 1 .708-.708l5.25 5.25a.5.5 0 0 1 0 .708l-5.25 5.25a.5.5 0 0 1-.708-.708z"/></g></symbol><symbol id="ui-caret-left" viewBox="0 0 19 19"><g class="nc-icon-wrapper" fill="currentColor"><g fill="none" fill-rule="evenodd"><path d="M12.75 3.25L6 10l6.75 6.75" stroke="currentColor" stroke-linecap="round" stroke-linejoin="round"/><path d="M6.707 10l6.397 6.396a.5.5 0 0 1-.708.708l-6.75-6.75a.5.5 0 0 1 0-.708l6.75-6.75a.5.5 0 0 1 .708.708z" fill="currentColor" fill-rule="nonzero"/></g></g></symbol><symbol id="ui-caret-down" viewBox="0 0 19 19"><g class="nc-icon-wrapper" fill="currentColor"><path d="M9.5 15.03l6.89-7.128a.5.5 0 1 1 .72.696l-7.25 7.5a.5.5 0 0 1-.72 0l-7.25-7.5a.5.5 0 1 1 .72-.696z"/></g></symbol><symbol id="ui-caret-right" viewBox="0 0 19 19"><g class="nc-icon-wrapper" fill="currentColor"><g fill="none" fill-rule="evenodd"><path d="M6 3.25L12.75 10 6 16.75" stroke="currentColor" stroke-linecap="round" stroke-linejoin="round"/><path d="M12.043 10L5.646 3.604a.5.5 0 1 1 .708-.708l6.75 6.75a.5.5 0 0 1 0 .708l-6.75 6.75a.5.5 0 0 1-.708-.708z" fill="currentColor" fill-rule="nonzero"/></g></g></symbol><symbol id="ui-caret-up" viewBox="0 0 19 19"><g class="nc-icon-wrapper" fill="currentColor"><g fill="none" fill-rule="evenodd"><path d="M2.25 15.75l7.25-7.5 7.25 7.5" stroke="currentColor" stroke-linecap="round" stroke-linejoin="round"/><path d="M9.5 8.97l-6.89 7.128a.5.5 0 0 1-.72-.696l7.25-7.5a.5.5 0 0 1 .72 0l7.25 7.5a.5.5 0 1 1-.72.696z" fill="currentColor" fill-rule="nonzero"/></g></g></symbol><symbol id="ui-checkmark" viewBox="0 0 19 19"><g class="nc-icon-wrapper" fill="currentColor"><g fill="none" fill-rule="evenodd"><g stroke="currentColor" transform="translate(2.25 2.75)"><circle cx="7.25" cy="7.25" r="7.25"/><path d="M3.293 7.5L6 10.25l5.009-5" stroke-linecap="round" stroke-linejoin="round"/></g><path d="M9.5 17.75a7.75 7.75 0 1 1 0-15.5 7.75 7.75 0 0 1 0 15.5zm0-1a6.75 6.75 0 1 0 0-13.5 6.75 6.75 0 0 0 0 13.5zm3.406-9.104a.5.5 0 1 1 .706.708l-5.009 5a.5.5 0 0 1-.71-.003L5.187 10.6a.5.5 0 0 1 .713-.702l2.354 2.391z" fill="currentColor" fill-rule="nonzero"/></g></g></symbol><symbol id="ui-close" viewBox="0 0 19 19"><g class="nc-icon-wrapper" fill="currentColor"><path d="M4.25 5.25l10.5 10.5m0-10.5l-10.5 10.5" fill="none" stroke="currentColor" stroke-linecap="round"/></g></symbol><symbol id="ui-delete" viewBox="0 0 19 19"><g class="nc-icon-wrapper" fill="currentColor"><path d="M10.694 9.81l1.681-1.68.884.884-1.68 1.68 1.666 1.667-.884.884-1.667-1.667-1.68 1.68-.884-.883 1.68-1.68L8.116 9 9 8.116zM5.985 6L1.91 10.75l4.076 4.75h11.27V6zm-.23-1h12a.5.5 0 0 1 .5.5V16a.5.5 0 0 1-.5.5h-12a.5.5 0 0 1-.379-.174l-4.505-5.25a.5.5 0 0 1 0-.652l4.505-5.25A.5.5 0 0 1 5.756 5z" fill-rule="evenodd"/></g></symbol><symbol id="ui-filter" viewBox="0 0 19 19"><g class="nc-icon-wrapper" fill="currentColor"><path d="M2.25 5.75a.5.5 0 0 1 0-1h14.5a.5.5 0 1 1 0 1zm2 3.5a.5.5 0 0 1 0-1h10.5a.5.5 0 1 1 0 1zm2 3.5a.5.5 0 1 1 0-1h6.5a.5.5 0 1 1 0 1zM8 16.25a.5.5 0 1 1 0-1h3a.5.5 0 1 1 0 1z" fill-rule="evenodd"/></g></symbol><symbol id="ui-heart" viewBox="0 0 19 19"><g class="nc-icon-wrapper" fill="currentColor"><path d="M12.898 2.218a4.384 4.384 0 0 1 4.384 4.384c0 1.196-.589 2.636-1.652 4.29-.58.902-1.291 1.85-2.105 2.827a47.663 47.663 0 0 1-3.684 3.929.5.5 0 0 1-.682 0 13.715 13.715 0 0 1-.32-.307 47.663 47.663 0 0 1-3.364-3.623 28.902 28.902 0 0 1-2.105-2.826c-1.063-1.654-1.652-3.094-1.652-4.29a4.384 4.384 0 0 1 4.384-4.384c1.348 0 2.581.62 3.398 1.64a4.345 4.345 0 0 1 3.398-1.64zM10.28 15.81a46.68 46.68 0 0 0 2.477-2.732 27.931 27.931 0 0 0 2.032-2.727c.968-1.507 1.493-2.79 1.493-3.75a3.384 3.384 0 0 0-3.384-3.383c-1.246 0-2.366.689-2.959 1.779a.5.5 0 0 1-.878 0 3.366 3.366 0 0 0-2.96-1.78 3.384 3.384 0 0 0-3.383 3.385c0 .959.525 2.242 1.493 3.749.556.865 1.243 1.78 2.032 2.727A46.68 46.68 0 0 0 9.5 16.59c.237-.231.499-.492.78-.78z" fill-rule="evenodd"/></g></symbol><symbol id="ui-like" viewBox="0 0 19 19"><g class="nc-icon-wrapper" fill="currentColor"><path d="M4.5 16.75V11H2.75v5.75zm.5 1H2.25a.5.5 0 0 1-.5-.5V10.5a.5.5 0 0 1 .5-.5h2.399L7.47 2.572a.5.5 0 0 1 .467-.322h.98c.815 0 1.479.655 1.479 1.467V8.05h4.395c1.624 0 2.805 1.533 2.368 3.086l-1.36 4.833a2.454 2.454 0 0 1-2.368 1.781H5zm.5-7.175v6.175h7.93c.657 0 1.232-.431 1.406-1.052l1.36-4.833c.256-.91-.44-1.815-1.405-1.815H9.896a.5.5 0 0 1-.5-.5V3.717a.473.473 0 0 0-.48-.467h-.634z" fill-rule="evenodd"/></g></symbol><symbol id="ui-location" viewBox="0 0 19 19"><g class="nc-icon-wrapper" fill="currentColor"><path d="M9.947 16.144a24.424 24.424 0 0 0 1.801-2.106c1.277-1.682 2.155-3.337 2.458-4.855.076-.38.114-.747.114-1.1a4.847 4.847 0 1 0-9.694 0c0 .353.039.72.115 1.1.303 1.518 1.18 3.173 2.457 4.855a24.424 24.424 0 0 0 2.275 2.588c.147-.145.306-.306.474-.482zm5.373-8.062c0 .422-.045.855-.134 1.297-.337 1.693-1.281 3.472-2.641 5.264a25.413 25.413 0 0 1-2.494 2.816c-.114.11-.196.187-.241.228a.5.5 0 0 1-.673 0 22.838 22.838 0 0 1-.86-.852A25.413 25.413 0 0 1 6.4 14.643c-1.36-1.792-2.303-3.571-2.641-5.264a6.621 6.621 0 0 1-.134-1.297 5.847 5.847 0 1 1 11.694 0zm-5.846-1.93a1.93 1.93 0 1 0-.001 3.86 1.93 1.93 0 0 0 0-3.86zm0-1a2.93 2.93 0 1 1-.001 5.86 2.93 2.93 0 0 1 0-5.86z" fill-rule="evenodd"/></g></symbol><symbol id="ui-menu" viewBox="0 0 19 19"><g class="nc-icon-wrapper" fill="currentColor"><path d="M2.25 16.25a.5.5 0 1 1 0-1h14.5a.5.5 0 1 1 0 1zm0-5.25a.5.5 0 1 1 0-1h14.5a.5.5 0 1 1 0 1zm0-5.25a.5.5 0 0 1 0-1h14.5a.5.5 0 1 1 0 1z" fill-rule="evenodd"/></g></symbol><symbol id="ui-search" viewBox="0 0 19 19"><g class="nc-icon-wrapper" fill="currentColor"><path d="M13.928 13.014l3.188 3.188a.515.515 0 0 1 0 .728l-.686.686a.515.515 0 0 1-.728 0l-3.188-3.188a6.75 6.75 0 1 1 1.414-1.414zM8.5 14.75a5.75 5.75 0 1 0 0-11.5 5.75 5.75 0 0 0 0 11.5z" fill-rule="evenodd"/></g></symbol><symbol id="ui-share" viewBox="0 0 19 19"><g class="nc-icon-wrapper" fill="currentColor"><path d="M7.5 8H5.25a.5.5 0 0 1-.373-.833l4.25-4.75a.5.5 0 0 1 .746 0l4.25 4.75A.5.5 0 0 1 13.75 8H11.5v5.5a.5.5 0 0 1-.5.5H8a.5.5 0 0 1-.5-.5zm5.132-1L9.5 3.5 6.368 7H8a.5.5 0 0 1 .5.5V13h2V7.5A.5.5 0 0 1 11 7zm3.618 5.5a.5.5 0 1 1 1 0v3.783c0 .81-.657 1.467-1.467 1.467H3.217c-.81 0-1.467-.657-1.467-1.467V12.5a.5.5 0 1 1 1 0v3.783c0 .258.21.467.467.467h12.566c.258 0 .467-.21.467-.467z" fill-rule="evenodd"/></g></symbol><symbol id="ui-star" viewBox="0 0 19 19"><g class="nc-icon-wrapper" fill="currentColor"><path d="M12.425 6.653l3.732.543.01.005a1.406 1.406 0 0 1 .691 2.382l-2.643 2.575.623 3.637a1.406 1.406 0 0 1-2.04 1.483L9.53 15.56l-3.268 1.718a1.406 1.406 0 0 1-2.04-1.482l.623-3.638-2.642-2.576a1.406 1.406 0 0 1 .781-2.399l3.652-.53 1.63-3.31.016-.03a1.443 1.443 0 0 1 2.496 0l.016.03zm-.664.914L9.907 3.805a.443.443 0 0 0-.752 0L7.302 7.568l-.26.038-3.914.568a.406.406 0 0 0-.226.693l3.019 2.943-.045.26-.668 3.896a.406.406 0 0 0 .59.428l3.733-1.963.233.123 3.499 1.838a.406.406 0 0 0 .59-.428l-.713-4.156.189-.183 2.831-2.758a.406.406 0 0 0-.225-.692l-.08-.012h-.001z" fill-rule="evenodd"/></g></symbol><symbol id="ui-tag" viewBox="0 0 19 19"><g class="nc-icon-wrapper" fill="currentColor"><path d="M5.305 3.277L2.777 5.805l.887 4.433 6.32 6.32 6.075-6.074-6.321-6.32zm-.066-1.033l4.843.969a.5.5 0 0 1 .256.137l6.781 6.78a.5.5 0 0 1 0 .708l-6.781 6.781a.5.5 0 0 1-.707 0L2.85 10.838a.5.5 0 0 1-.137-.256L1.744 5.74a.5.5 0 0 1 .137-.452l2.906-2.906a.5.5 0 0 1 .452-.137zm1.355 5.818a.969.969 0 1 1 0-1.937.969.969 0 0 1 0 1.938z" fill-rule="evenodd"/></g></symbol></svg>
