<svg xmlns="http://www.w3.org/2000/svg" style="display: none;"><symbol id="value-prop-add-people" viewBox="0 0 19 19"><g class="nc-icon-wrapper" fill="currentColor"><path d="M15.5 12.5h1.75v1H15.5v1.75h-1V13.5h-1.75v-1h1.75v-1.75h1zm-6-2.5c1.66 0 3-1.298 3-2.89v-.97c0-1.592-1.34-2.89-3-2.89s-3 1.298-3 2.89v.97c0 1.592 1.34 2.89 3 2.89zm0 1c-2.206 0-4-1.738-4-3.89v-.97c0-2.152 1.794-3.89 4-3.89s4 1.738 4 3.89v.97c0 2.152-1.794 3.89-4 3.89zm7.75 5.75v1H1.75v-.5c0-2.626 2.171-4.75 4.845-4.75h4.362v1H6.595c-1.952 0-3.56 1.417-3.811 3.25z" fill-rule="evenodd"/></g></symbol><symbol id="value-prop-browser-window" viewBox="0 0 19 19"><g class="nc-icon-wrapper" fill="currentColor"><path d="M2.75 6.75h13.5v-3.5H2.75zm13.5 1H2.75v9h13.5zM4.25 10h4v4.5h-4zm5.5.5v-1h5.5v1zm0 2.25v-1h5.5v1zm0 2.25v-1h3v1zm-6-9.5v-1H5.5v1zm2.5 0v-1H8v1zm5.5 0v-1h3.5v1zm5.5-3.25v15.5H1.75V2.25z" fill-rule="evenodd"/></g></symbol><symbol id="value-prop-connection" viewBox="0 0 19 19"><g class="nc-icon-wrapper" fill="currentColor"><path d="M12.38 6.238L9.5 9.22l-.36-.373-2.52-2.609a2.236 2.236 0 0 1 0-3.09 2.097 2.097 0 0 1 2.88-.144 2.097 2.097 0 0 1 2.88.145 2.235 2.235 0 0 1 0 3.09zm-.719-.695a1.235 1.235 0 0 0 0-1.7 1.103 1.103 0 0 0-1.74.184l-.421.657-.42-.657a1.103 1.103 0 0 0-1.74-.184 1.236 1.236 0 0 0 0 1.7L9.5 7.78zM13.75 13a2 2 0 1 1 0-4 2 2 0 0 1 0 4zm0-1a1 1 0 1 0 0-2 1 1 0 0 0 0 2zm-8.5 1a2 2 0 1 1 0-4 2 2 0 0 1 0 4zm0-1a1 1 0 1 0 0-2 1 1 0 0 0 0 2zm3.5 5.5h-7v-1.996c0-.53.277-1.018.73-1.29.734-.438 1.66-.714 2.77-.714 1.096 0 2.02.277 2.763.716a1.5 1.5 0 0 1 .737 1.293zm-1-1.992a.5.5 0 0 0-.246-.432c-.594-.35-1.346-.576-2.254-.576-.922 0-1.673.224-2.257.573a.499.499 0 0 0-.243.43v.997h5zm9.5 1.992h-7v-1.996c0-.53.277-1.018.73-1.29.734-.438 1.66-.714 2.77-.714 1.096 0 2.02.277 2.763.716a1.5 1.5 0 0 1 .737 1.293zm-1-1.992a.5.5 0 0 0-.246-.432c-.594-.35-1.346-.576-2.254-.576-.922 0-1.673.224-2.257.573a.499.499 0 0 0-.243.43v.997h5z" fill="currentColor"/></g></symbol><symbol id="value-prop-dashboard" viewBox="0 0 19 19"><g class="nc-icon-wrapper" fill="currentColor"><path d="M2.824 11h5.992L5.834 6.527l.832-.554L10.018 11h6.158a6.75 6.75 0 1 0-13.353 0zm.227 1a6.753 6.753 0 0 0 12.898 0zM9.5 17.75a7.75 7.75 0 1 1 0-15.5 7.75 7.75 0 0 1 0 15.5z" fill-rule="evenodd"/></g></symbol><symbol id="value-prop-globe" viewBox="0 0 19 19"><g class="nc-icon-wrapper" fill="currentColor"><path d="M4.091 5.96A6.715 6.715 0 0 0 2.768 9.5h2.375c.034-.836.152-1.631.351-2.373a6.073 6.073 0 0 1-1.403-1.166zm.663-.76c.323.375.675.69 1.062.947.396-1.006.96-1.885 1.676-2.593A6.747 6.747 0 0 0 4.754 5.2zm6.754-1.646c.714.706 1.276 1.58 1.671 2.582a5.523 5.523 0 0 0 1.062-.94 6.747 6.747 0 0 0-2.733-1.642zm3.395 2.4c-.428.47-.892.854-1.4 1.162.2.745.32 1.544.354 2.384h2.375a6.715 6.715 0 0 0-1.329-3.546zm1.329 4.546h-2.375c-.034.84-.154 1.64-.354 2.384.508.308.972.693 1.4 1.162a6.715 6.715 0 0 0 1.329-3.546zm-1.991 4.305a5.523 5.523 0 0 0-1.062-.941c-.395 1.002-.957 1.876-1.67 2.582a6.747 6.747 0 0 0 2.732-1.641zm-6.75 1.641c-.716-.708-1.279-1.587-1.675-2.593a5.205 5.205 0 0 0-1.062.947 6.747 6.747 0 0 0 2.738 1.646zm-3.4-2.407a6.073 6.073 0 0 1 1.403-1.166 10.853 10.853 0 0 1-.35-2.373H2.767a6.715 6.715 0 0 0 1.323 3.54zM6.144 9.5H9V8.073c-.968-.04-1.826-.202-2.589-.498A9.938 9.938 0 0 0 6.144 9.5zm0 1c.03.678.12 1.322.267 1.925.763-.296 1.62-.458 2.589-.498V10.5zm6.712-1a9.934 9.934 0 0 0-.269-1.931c-.763.3-1.618.463-2.587.504V9.5zm0 1H10v1.427c.97.04 1.824.204 2.587.504.148-.605.24-1.251.269-1.931zM9 7.072V3.607c-1.032.693-1.81 1.73-2.293 3.01.664.268 1.42.416 2.293.455zm1 0c.873-.04 1.626-.188 2.29-.462C11.808 5.333 11.03 4.3 10 3.607zm-1 5.856c-.872.04-1.629.187-2.293.456.483 1.28 1.261 2.316 2.293 3.01zm1 0v3.465c1.03-.692 1.807-1.726 2.29-3.003-.664-.274-1.417-.422-2.29-.462zm-.5 4.822a7.75 7.75 0 1 1 0-15.5 7.75 7.75 0 0 1 0 15.5z" fill-rule="evenodd"/></g></symbol><symbol id="value-prop-growth" viewBox="0 0 19 19"><g class="nc-icon-wrapper" fill="currentColor"><path d="M12.998 3.25H11v-1h4v4h-1V3.677L9.241 8.198 6.77 5.726 4.872 7.834l-.744-.668 2.603-2.892 2.528 2.528zM8.5 11.5v5.25h2V11.5zm3-1v7.25h-4V10.5zm-8.25 3.75v2.5h2v-2.5zm3-1v4.5h-4v-4.5zm7.5-4.75v8.25h2V8.5zm3-1v10.25h-4V7.5z" fill-rule="evenodd"/></g></symbol><symbol id="value-prop-handout" viewBox="0 0 19 19"><g class="nc-icon-wrapper" fill="currentColor"><path d="M4.75 9.75h.233c1.167 0 2.437.563 3.145 1.393h1.689c.787 0 1.555.46 2.011 1.107h2.962c.896 0 1.552.227 1.984.624.165.152.286.318.369.488.054.112.085.208.099.281l.074.4-.377.155-7.02 2.864a2.597 2.597 0 0 1-2.136-.09L4.75 15.424v.594h-3V8.75h3zm0 1v3.552l3.484 1.778c.41.206.888.226 1.31.056l6.427-2.623c-.248-.162-.628-.263-1.181-.263h-2.557c.011.083.017.166.017.25v.5H7.4v-1h3.717c-.242-.467-.782-.857-1.3-.857H7.622l-.149-.214c-.464-.666-1.54-1.179-2.49-1.179zm9 0a2.5 2.5 0 1 1 0-5 2.5 2.5 0 0 1 0 5zm0-1a1.5 1.5 0 1 0 0-3 1.5 1.5 0 0 0 0 3zm-11 0v5.268h1V9.75zm5-2a2.5 2.5 0 1 1 0-5 2.5 2.5 0 0 1 0 5zm0-1a1.5 1.5 0 1 0 0-3 1.5 1.5 0 0 0 0 3z" fill-rule="evenodd"/></g></symbol><symbol id="value-prop-mobile" viewBox="0 0 19 19"><g class="nc-icon-wrapper" fill="currentColor"><path d="M5.25 13.75h8.5v-8.5h-8.5zm8.5 1h-8.5v1.533c0 .258.206.467.45.467h7.6c.244 0 .45-.21.45-.467zm-8.5-10.5h8.5v-.533a.461.461 0 0 0-.45-.467H5.7c-.244 0-.45.21-.45.467zm8.05 13.5H5.7c-.8 0-1.45-.66-1.45-1.467V3.717c0-.806.65-1.467 1.45-1.467h7.6c.8 0 1.45.66 1.45 1.467v12.566c0 .806-.65 1.467-1.45 1.467zM9.5 9.5a1.5 1.5 0 1 1 0-3 1.5 1.5 0 0 1 0 3zm0-1a.5.5 0 1 0 0-1 .5.5 0 0 0 0 1zM10 11H9a1.5 1.5 0 0 0-1.415 1h3.83A1.5 1.5 0 0 0 10 11zm-3.5 2v-.5A2.5 2.5 0 0 1 9 10h1a2.5 2.5 0 0 1 2.5 2.5v.5z" fill-rule="evenodd"/></g></symbol><symbol id="value-prop-security" viewBox="0 0 19 19"><g class="nc-icon-wrapper" fill="currentColor"><path d="M9 16.336V10.5H3.769C4.808 13.014 6.606 15.098 9 16.336zm1 0c2.394-1.238 4.192-3.322 5.231-5.836H10zM15.597 9.5c.381-1.19.601-2.457.645-3.764-2.01-.106-4.42-.824-6.242-1.924V9.5zM9 3.812c-1.822 1.1-4.232 1.818-6.242 1.924.044 1.307.264 2.574.645 3.764H9zm.2-1.337l.3-.225.3.225c1.826 1.37 4.76 2.275 6.95 2.275h.5v.5c0 5.402-2.813 10.303-7.553 12.335l-.197.084-.197-.084C4.563 15.553 1.75 10.652 1.75 5.25v-.5h.5c2.19 0 5.124-.906 6.95-2.275z" fill-rule="evenodd"/></g></symbol><symbol id="value-prop-support" viewBox="0 0 19 19"><g class="nc-icon-wrapper" fill="currentColor"><path d="M12.675 7.5L9.5 10.04V2.25h7.75V7.5zM10.5 3.25v4.71l1.825-1.46h3.925V3.25zm-4.383 8.733a2.433 2.433 0 1 1 0-4.866 2.433 2.433 0 0 1 0 4.866zm0-1a1.433 1.433 0 1 0 0-2.866 1.433 1.433 0 0 0 0 2.866zm3.366 5.8v-1.515a.938.938 0 0 0-.59-.88c-.76-.293-1.684-.471-2.776-.471s-2.018.178-2.776.47a.938.938 0 0 0-.591.881v1.515zm-7.733 1v-2.515c0-.803.486-1.526 1.231-1.813.871-.336 1.917-.538 3.136-.538 1.218 0 2.264.202 3.135.538a1.938 1.938 0 0 1 1.231 1.813v2.515z" fill-rule="evenodd"/></g></symbol></svg>
